# xmcd
#
# Track frame offsets:
#	150
#	14810
#	30748
#
# Disc length: 839 seconds
#
# Revision: 0
# Processed by: cddbd v1.5.1PL0 Copyright (c) Steve Scherf et al.
# Submitted via: dBpowerAMP V4.0
#
DISCID=20034503
DTITLE=Louise - Pandora's Kiss (Single)
DYEAR=2003
DGENRE=Pop
TTITLE0=Pandora's Kiss (Radio Edit)
TTITLE1=Don't Give Up (Radio Edit)
TTITLE2=Pandora's Kiss (Goldtrix Freaktronic Vocal Mix)
EXTD=
EXTT0=
EXTT1=
EXTT2=
PLAYORDER=
